<?xml version="1.0" standalone="no"?>
<!DOCTYPE svg PUBLIC "-//W3C//DTD SVG 20010904//EN"
 "http://www.w3.org/TR/2001/REC-SVG-20010904/DTD/svg10.dtd">
<svg version="1.0" xmlns="http://www.w3.org/2000/svg"
 width="1000.000000pt" height="1000.000000pt" viewBox="0 0 1000.000000 1000.000000"
 preserveAspectRatio="xMidYMid meet">

<g transform="translate(0.000000,1000.000000) scale(0.100000,-0.100000)"
fill="#000000" stroke="none">
<path d="M4510 9228 c-308 -36 -499 -69 -720 -127 -453 -117 -919 -333 -1324
-614 -910 -632 -1540 -1614 -1731 -2702 -39 -221 -48 -335 -52 -677 -5 -350 1
-466 33 -688 171 -1165 832 -2207 1819 -2867 294 -196 664 -379 988 -488 104
-34 390 -114 457 -126 30 -6 75 -15 100 -20 300 -57 780 -84 1097 -60 223 16
518 62 683 105 8 2 61 16 116 30 395 100 902 331 1232 560 41 28 91 62 111 75
20 13 59 43 88 67 28 24 54 44 58 44 9 0 187 153 206 177 8 10 -22 -12 -66
-48 -539 -442 -1150 -730 -1835 -865 -234 -46 -403 -59 -775 -59 -327 0 -424
6 -615 34 -662 99 -1322 380 -1862 793 -834 637 -1400 1572 -1567 2590 -49
297 -68 608 -53 876 l7 134 35 12 c19 7 181 82 360 166 1174 552 1257 590
1274 590 6 0 21 -37 34 -83 23 -83 100 -358 232 -827 40 -140 76 -268 80 -285
4 -16 73 -264 153 -550 161 -572 340 -1214 647 -2310 111 -396 203 -721 205
-724 3 -3 556 252 573 265 5 3 -56 224 -233 854 -170 607 -212 755 -325 1160
-50 179 -122 435 -160 570 -38 135 -103 369 -146 520 -85 306 -165 591 -279
995 -41 149 -85 304 -96 345 -12 41 -29 102 -39 135 -10 33 -28 98 -40 145
-33 130 -169 613 -174 617 -3 3 -231 -103 -631 -292 -55 -26 -156 -73 -225
-105 -69 -32 -179 -84 -245 -115 -66 -31 -149 -71 -185 -87 -36 -17 -103 -49
-150 -70 -47 -22 -152 -72 -235 -110 -82 -39 -185 -88 -228 -109 -43 -21 -80
-39 -83 -39 -16 0 50 234 119 420 182 497 462 961 803 1335 379 416 759 704
1239 940 228 112 493 214 700 270 28 7 85 23 127 34 269 72 664 121 978 121
299 -1 699 -47 939 -110 20 -5 59 -14 86 -21 103 -24 309 -89 438 -139 324
-124 570 -255 897 -477 150 -103 327 -251 524 -443 149 -144 153 -147 61 -47
-556 599 -1329 1037 -2160 1223 -66 15 -142 30 -170 34 -226 32 -293 40 -380
50 -117 12 -606 11 -715 -2z"/>
<path d="M6469 8621 c-124 -58 -274 -129 -335 -157 -136 -64 -1132 -533 -1234
-581 -109 -52 -563 -265 -645 -303 -388 -180 -902 -423 -908 -429 -4 -4 15
-86 42 -182 27 -96 79 -282 116 -414 77 -277 142 -509 190 -680 19 -66 66
-235 105 -375 39 -140 86 -309 105 -375 46 -163 113 -403 175 -625 120 -429
143 -511 175 -625 19 -66 66 -235 105 -375 39 -140 86 -309 105 -375 18 -66
54 -194 80 -285 25 -91 57 -205 71 -255 31 -108 58 -207 118 -420 24 -88 65
-232 89 -320 25 -88 64 -229 88 -313 40 -146 43 -153 65 -148 13 4 114 49 226
101 112 53 240 112 285 133 65 29 83 41 83 58 0 19 -88 342 -265 969 -31 110
-83 297 -116 415 -33 118 -105 373 -159 565 -54 193 -117 415 -139 495 -23 79
-41 150 -41 158 0 7 51 37 113 66 177 84 250 118 602 283 182 85 474 223 650
305 669 315 983 461 1058 496 77 35 79 36 73 66 -11 57 -149 551 -157 559 -3
5 -15 4 -25 -2 -11 -6 -140 -67 -289 -137 -148 -69 -313 -146 -365 -171 -52
-25 -117 -55 -145 -68 -27 -13 -414 -195 -860 -404 -445 -210 -815 -379 -821
-377 -5 2 -20 42 -33 87 -12 46 -55 201 -95 344 -41 143 -108 382 -149 530
-42 149 -112 398 -156 555 -121 432 -121 434 -113 442 7 7 229 118 236 118 3
0 62 27 133 61 130 62 908 428 1018 479 73 34 286 134 660 309 154 73 369 173
478 224 l198 91 -7 31 c-9 41 -153 558 -156 560 -2 2 -104 -45 -229 -104z"/>
<path d="M8050 7787 c0 -2 15 -16 33 -33 l32 -29 -29 33 c-28 30 -36 37 -36
29z"/>
<path d="M7949 2183 c-13 -16 -12 -17 4 -4 16 13 21 21 13 21 -2 0 -10 -8 -17
-17z"/>
<path d="M7859 2093 l-34 -38 38 34 c34 33 42 41 34 41 -2 0 -19 -17 -38 -37z"/>
<path d="M7770 2008 c-26 -24 -32 -32 -15 -20 28 18 73 63 64 62 -2 -1 -24
-19 -49 -42z"/>
</g>
</svg>
